<svg xmlns="http://www.w3.org/2000/svg" viewBox="0 0 226.53 76.58"><defs><style>.cls-1{fill:#e33226;}.cls-2{fill:#a3a5a8;}.cls-3{fill:#fff;}</style></defs><g id="Layer_2" data-name="Layer 2"><g id="Layer_1-2" data-name="Layer 1"><path class="cls-1" d="M74.45,32.75a4.71,4.71,0,0,1,.67,2.46,4.64,4.64,0,0,1-.58,2.27A4.41,4.41,0,0,1,73,39.1a4.3,4.3,0,0,1-2.25.6H63.44v-14h5.73a4.38,4.38,0,0,1,2,.47,3.5,3.5,0,0,1,1.41,1.31,3.58,3.58,0,0,1,.5,1.87,3.29,3.29,0,0,1-.5,1.72A4.29,4.29,0,0,1,74.45,32.75Zm-8.72-4.87v2.74h4.65a1.6,1.6,0,0,0,.44-1.14,1.58,1.58,0,0,0-.44-1.15,1.65,1.65,0,0,0-1.21-.45Zm6.45,9a2.72,2.72,0,0,0,0-3.49,2.28,2.28,0,0,0-1.77-.69H65.73v4.88H70.4A2.3,2.3,0,0,0,72.18,36.85Z"/><path class="cls-1" d="M86.16,36.89H80.35l-.94,2.81h-2.5l5-14h2.75l5,14H87.12Zm-.74-2.16-2.16-6.39-2.17,6.39Z"/><path class="cls-1" d="M94.87,39a7.3,7.3,0,0,1-2.63-9.93,7.25,7.25,0,0,1,12.55,0,7.37,7.37,0,0,1,0,7.31A7.16,7.16,0,0,1,102.17,39a7.35,7.35,0,0,1-7.3,0ZM101,37.08a4.76,4.76,0,0,0,1.79-1.8,5.39,5.39,0,0,0,0-5.13,4.62,4.62,0,0,0-1.79-1.8,5.19,5.19,0,0,0-5,0,4.69,4.69,0,0,0-1.79,1.8,5.39,5.39,0,0,0,0,5.13A4.83,4.83,0,0,0,96,37.08a5.26,5.26,0,0,0,5,0Z"/><path class="cls-1" d="M117.24,37.51V39.7h-7.88v-14h2.29V37.51Z"/><path class="cls-1" d="M122.44,39a7.3,7.3,0,0,1-2.63-9.93,7.18,7.18,0,0,1,6.28-3.59,7.13,7.13,0,0,1,3.65,1,7.29,7.29,0,0,1,2.63,2.63A7.25,7.25,0,0,1,129.74,39a7.35,7.35,0,0,1-7.3,0Zm6.16-1.91a4.76,4.76,0,0,0,1.79-1.8,5.39,5.39,0,0,0,0-5.13,4.62,4.62,0,0,0-1.79-1.8,5.19,5.19,0,0,0-5,0,4.69,4.69,0,0,0-1.79,1.8,5.46,5.46,0,0,0,0,5.13,4.83,4.83,0,0,0,1.79,1.8,5.26,5.26,0,0,0,5,0Z"/><path class="cls-1" d="M146.91,25.73v14h-1.8l-5.89-9.48V39.7h-2.29v-14h1.79l5.89,9.48V25.73Z"/><path class="cls-1" d="M158,32.35h6.49V39.7h-2.2V37.8a4.84,4.84,0,0,1-2,1.6,6.58,6.58,0,0,1-2.74.56A6.89,6.89,0,0,1,154,39a6.8,6.8,0,0,1-2.54-2.62,7.52,7.52,0,0,1-.92-3.67,7.37,7.37,0,0,1,.94-3.67,6.89,6.89,0,0,1,2.6-2.62,7.65,7.65,0,0,1,6.71-.33,6.88,6.88,0,0,1,2.37,1.74,6.05,6.05,0,0,1,1.34,2.49H162a3.83,3.83,0,0,0-1.61-1.88,4.93,4.93,0,0,0-2.66-.74,5.1,5.1,0,0,0-2.58.65,4.43,4.43,0,0,0-1.75,1.79,5.34,5.34,0,0,0-.62,2.57,5.42,5.42,0,0,0,.63,2.64,4.6,4.6,0,0,0,1.76,1.82,5.45,5.45,0,0,0,5.6-.24,3.31,3.31,0,0,0,1.37-2.52H158Z"/><path class="cls-2" d="M175.89,26.32a4.43,4.43,0,0,1,2.25,3.9,4.35,4.35,0,0,1-.6,2.24,4.55,4.55,0,0,1-3.94,2.25h-2.85v5h-2.3v-14h5.15A4.52,4.52,0,0,1,175.89,26.32Zm-.7,5.56a2.44,2.44,0,0,0,0-3.32,2.12,2.12,0,0,0-1.59-.68h-2.85v4.67h2.85A2.11,2.11,0,0,0,175.19,31.88Z"/><path class="cls-2" d="M184.46,39a6.89,6.89,0,0,1-2.61-2.61,7.65,7.65,0,0,1,0-7.35,6.84,6.84,0,0,1,2.61-2.62,7.53,7.53,0,0,1,3.76-1,7,7,0,0,1,3,.64,6.74,6.74,0,0,1,2.37,1.78,6.43,6.43,0,0,1,1.33,2.63h-2.42a3.89,3.89,0,0,0-1.62-2.05,4.75,4.75,0,0,0-2.65-.77,5.22,5.22,0,0,0-2.62.65,4.46,4.46,0,0,0-1.76,1.79,5.58,5.58,0,0,0,0,5.15,4.52,4.52,0,0,0,1.76,1.79,5.22,5.22,0,0,0,2.62.64,4.75,4.75,0,0,0,2.65-.76,3.92,3.92,0,0,0,1.62-2.05h2.42a6.12,6.12,0,0,1-1.32,2.6,6.83,6.83,0,0,1-2.38,1.8,7.05,7.05,0,0,1-3,.65A7.43,7.43,0,0,1,184.46,39Z"/><path class="cls-2" d="M197.5,37.21H200V39.7h-2.5Z"/><path class="cls-2" d="M201.29,25.73h2.5L207.42,37l3.66-11.26h2.47l-4.75,14h-2.75Z"/><path class="cls-2" d="M226.53,25.73v14h-1.8l-5.89-9.48V39.7h-2.29v-14h1.79l5.89,9.48V25.73Z"/><path class="cls-1" d="M69.13,47.52v8.25H68V52h-3.5v3.73H63.44V47.52h1.09V51H68V47.52Z"/><path class="cls-1" d="M72.87,47.52v8.25H71.78V47.52Z"/><path class="cls-1" d="M84.12,54.73v1H79.35V47.52h4.71v1H80.44v2.53h3.32v1H80.44v2.62Z"/><path class="cls-1" d="M92,47.52v8.25h-.88l-3.73-6.11v6.11h-1.1V47.52h.89L91,53.61V47.52Z"/><path class="cls-1" d="M100.15,48.07a3.79,3.79,0,0,1,1.4,1.49,4.35,4.35,0,0,1,.5,2.08,4.29,4.29,0,0,1-.5,2.08,3.89,3.89,0,0,1-1.4,1.5,3.78,3.78,0,0,1-2,.55H94.69V47.52h3.46A3.69,3.69,0,0,1,100.15,48.07Zm-.52,6.25a2.82,2.82,0,0,0,1-1.1,3.44,3.44,0,0,0,.37-1.58,3.4,3.4,0,0,0-.37-1.57,2.78,2.78,0,0,0-1-1.11,2.74,2.74,0,0,0-1.48-.4H95.79v6.17h2.36A2.74,2.74,0,0,0,99.63,54.32Z"/><path class="cls-1" d="M112.38,47.86a2.56,2.56,0,0,1,1.29,2.22,2.49,2.49,0,0,1-.35,1.28,2.73,2.73,0,0,1-.94.94,2.54,2.54,0,0,1-1.29.34h-1.9v3.13H108.1V47.52h3A2.49,2.49,0,0,1,112.38,47.86Zm-.55,3.55a1.39,1.39,0,0,0,.54-.56,1.5,1.5,0,0,0,.2-.77,1.48,1.48,0,0,0-.2-.77,1.53,1.53,0,0,0-.54-.56,1.37,1.37,0,0,0-.74-.2h-1.9v3.07h1.9A1.38,1.38,0,0,0,111.83,51.41Z"/><path class="cls-1" d="M117.47,55.35a4.09,4.09,0,0,1-1.54-1.55,4.5,4.5,0,0,1,0-4.31,4.09,4.09,0,0,1,1.54-1.55,4.32,4.32,0,0,1,2.22-.57,4.22,4.22,0,0,1,1.73.36,4.14,4.14,0,0,1,1.38,1,3.75,3.75,0,0,1,.8,1.48h-1.17a2.66,2.66,0,0,0-1.05-1.3,2.94,2.94,0,0,0-1.69-.5,3.33,3.33,0,0,0-1.68.42A3,3,0,0,0,116.87,50a3.45,3.45,0,0,0,0,3.26A2.93,2.93,0,0,0,118,54.42a3.23,3.23,0,0,0,1.68.43,3,3,0,0,0,1.69-.5,2.64,2.64,0,0,0,1.05-1.29h1.17a3.65,3.65,0,0,1-.8,1.47,3.88,3.88,0,0,1-1.38,1,4.07,4.07,0,0,1-1.73.37A4.32,4.32,0,0,1,117.47,55.35Z"/><path class="cls-1" d="M134.94,55.77l-.56-.56a3.89,3.89,0,0,1-2.36.71,3.43,3.43,0,0,1-1.46-.3,2.4,2.4,0,0,1-1-.86,2.22,2.22,0,0,1-.37-1.29,2.47,2.47,0,0,1,.33-1.26,3,3,0,0,1,.95-1,3,3,0,0,1-.44-.72,2.31,2.31,0,0,1-.15-.86,2.21,2.21,0,0,1,.34-1.2,2.38,2.38,0,0,1,.92-.8,2.83,2.83,0,0,1,1.26-.28,3.06,3.06,0,0,1,1.28.27,2.3,2.3,0,0,1,1,.84,2.43,2.43,0,0,1,.36,1.35h-1.09a1.26,1.26,0,0,0-.43-1,1.64,1.64,0,0,0-1.08-.36,1.51,1.51,0,0,0-1,.34,1.12,1.12,0,0,0-.42.92,1.2,1.2,0,0,0,.21.67,4.35,4.35,0,0,0,.56.69l2.6,2.65a3.67,3.67,0,0,0,.4-1.81h1.09a5.31,5.31,0,0,1-.18,1.37,4.14,4.14,0,0,1-.54,1.21l1.27,1.3Zm-1.31-1.31L131.15,52a1.73,1.73,0,0,0-.67.64,1.6,1.6,0,0,0-.22.82,1.3,1.3,0,0,0,.5,1.06,2,2,0,0,0,1.3.4A2.67,2.67,0,0,0,133.63,54.46Z"/><path class="cls-1" d="M151.44,47.52l-2.5,8.25h-1.32l-1.22-4-1.23,4h-1.32l-2.48-8.25h1.09l2.09,7,1.34-4.46-.76-2.54h1l2.09,7,2.09-7Z"/><path class="cls-1" d="M154.59,55.35a4.35,4.35,0,0,1-1.54-5.86,4.21,4.21,0,0,1,3.7-2.12,4.24,4.24,0,0,1,3.7,2.12,4.24,4.24,0,0,1,.57,2.15,4.19,4.19,0,0,1-.57,2.15,4.15,4.15,0,0,1-1.55,1.56,4.36,4.36,0,0,1-4.31,0Zm3.77-.93a3.05,3.05,0,0,0,1.15-1.16,3.21,3.21,0,0,0,.42-1.62,3.24,3.24,0,0,0-.42-1.63,3.05,3.05,0,0,0-1.15-1.16,3.3,3.3,0,0,0-3.22,0A3.05,3.05,0,0,0,154,50a3.24,3.24,0,0,0-.42,1.63,3.21,3.21,0,0,0,.42,1.62,3.2,3.2,0,0,0,4.37,1.16Z"/><path class="cls-1" d="M165.88,52.61h-1.56v3.16h-1.09V47.52h3a2.48,2.48,0,0,1,1.28.34,2.56,2.56,0,0,1,1.29,2.22,2.39,2.39,0,0,1-.49,1.47,2.55,2.55,0,0,1-1.23.92l2.84,3.3h-1.33Zm-1.56-1h1.91a1.38,1.38,0,0,0,.74-.21,1.43,1.43,0,0,0,.53-.56,1.5,1.5,0,0,0,.2-.77,1.48,1.48,0,0,0-.2-.77,1.58,1.58,0,0,0-.53-.56,1.37,1.37,0,0,0-.74-.2h-1.91Z"/><path class="cls-1" d="M176.18,55.77l-3.55-4v4h-1.1V47.52h1.1v3.73l3.43-3.73h1.35l-3.64,4,3.75,4.23Z"/><path class="cls-1" d="M179.9,55.62a2.44,2.44,0,0,1-1.06-.89,2.36,2.36,0,0,1-.4-1.4h1.1a1.35,1.35,0,0,0,.49,1.12,2.07,2.07,0,0,0,1.35.4,1.92,1.92,0,0,0,1.16-.34,1.05,1.05,0,0,0,.45-.89,1,1,0,0,0-.43-.84,5.42,5.42,0,0,0-1.28-.63,12.85,12.85,0,0,1-1.39-.58,2.36,2.36,0,0,1-.86-.72,2,2,0,0,1-.37-1.24A2,2,0,0,1,179,48.4a2.34,2.34,0,0,1,.93-.77,3.12,3.12,0,0,1,1.26-.26,3,3,0,0,1,1.32.28,2.27,2.27,0,0,1,1,.84,2.44,2.44,0,0,1,.36,1.34h-1.1a1.31,1.31,0,0,0-.42-1,1.68,1.68,0,0,0-1.13-.36,1.64,1.64,0,0,0-1,.32,1,1,0,0,0-.41.86,1,1,0,0,0,.4.87,5.11,5.11,0,0,0,1.25.63l.22.09a12.52,12.52,0,0,1,1.29.56,2.59,2.59,0,0,1,.84.71,1.87,1.87,0,0,1,.34,1.15,2,2,0,0,1-.37,1.22,2.25,2.25,0,0,1-1,.8,3.16,3.16,0,0,1-1.34.28A3.53,3.53,0,0,1,179.9,55.62Z"/><path class="cls-1" d="M190.83,48.56h-2.2v7.21h-1.08V48.56h-2.19v-1h5.47Z"/><path class="cls-1" d="M196.91,53.92h-3.67l-.66,1.85h-1.17l3-8.25h1.24l3.05,8.25h-1.17Zm-.38-1-1.46-4.09-1.47,4.09Z"/><path class="cls-1" d="M204.8,48.56h-2.2v7.21h-1.08V48.56h-2.19v-1h5.47Z"/><path class="cls-1" d="M207.86,47.52v8.25h-1.09V47.52Z"/><path class="cls-1" d="M212.18,55.35a4.19,4.19,0,0,1-1.54-1.56,4.41,4.41,0,0,1,0-4.3,4.32,4.32,0,0,1,5.86-1.55,4.24,4.24,0,0,1,2.12,3.7,4.28,4.28,0,0,1-2.12,3.71,4.38,4.38,0,0,1-4.32,0Zm3.77-.93a3.05,3.05,0,0,0,1.15-1.16,3.21,3.21,0,0,0,.42-1.62A3.24,3.24,0,0,0,217.1,50,3.05,3.05,0,0,0,216,48.85a3.3,3.3,0,0,0-3.22,0A3.05,3.05,0,0,0,211.58,50a3.24,3.24,0,0,0-.42,1.63,3.21,3.21,0,0,0,.42,1.62A3.2,3.2,0,0,0,216,54.42Z"/><path class="cls-1" d="M226.53,47.52v8.25h-.88l-3.74-6.11v6.11h-1.09V47.52h.88l3.75,6.09V47.52Z"/><path class="cls-1" d="M77,51.86v.62H75.12v-.62Z"/><rect class="cls-1" width="52.97" height="76.58"/><polygon class="cls-3" points="8.04 20.76 21.65 28.4 21.65 55.62 28.5 51.9 28.5 48.37 35.06 52 35.06 55.62 18.61 65.22 15.19 63.26 15.09 32.22 8.04 28.1 8.04 67.67 18.03 73.44 42.12 59.73 42.12 47.88 28.6 39.76 28.5 24.38 8.04 12.44 8.04 20.76"/></g></g></svg>